:FULLY-SPECIFIED
:FORCE-ALL-JOINTS-BE-3DOF
:DEGREES
1223
root -0.842055 14.8461 -16.6087 10.1353 15.3898 0.0270706
lfemur -2.35701 -1.56206 -8.83225
ltibia 64.0462 -0 0
lfoot 4.88011 -0.491473 -0.79369
ltoes -29.2343 0 0
rfemur -52.2612 -8.38874 24.143
rtibia 73.7263 -0 0
rfoot -20.9051 -21.7523 0.212577
rtoes -5.53492 0 0
lowerback 12.3208 1.37005 -2.10758
upperback -3.56106 1.50928 0.0875404
thorax -10.8672 0.860052 0.953799
lowerneck -1.35668 -8.14125 -9.47241
upperneck 0.637392 -10.8785 10.0825
head 1.50607 -5.3947 4.2409
lclavicle -2.73065e-14 -1.84249e-14 0
lhumerus -54.6041 -34.4333 118.679
lradius 85.5012 -0 0
lwrist 8.23361 0 0
lhand -28.8643 26.14 0.20351
lfingers 7.12502 -0 0
lthumb -2.22092 56.0517 0.192064
rclavicle -2.73065e-14 -1.84249e-14 0
rhumerus 64.9994 5.97548 -26.489
rradius 93.9646 -0 0
rwrist -14.5046 0 0
rhand -28.6792 -34.5182 -0.0237776
rfingers 7.12502 -0 0
rthumb -2.04141 -64.469 -0.0248891
1224
root -0.856038 14.8573 -16.487 10.3286 14.9925 -0.134733
lfemur -2.67077 -1.69332 -8.83781
ltibia 64.6931 -0 0
lfoot 5.4784 -1.27707 -0.633443
ltoes -29.291 0 0
rfemur -52.1709 -8.10552 24.5286
rtibia 73.8462 -0 0
rfoot -21.1309 -22.3217 0.16976
rtoes -5.43698 0 0
lowerback 12.2342 1.3315 -1.91604
upperback -3.61428 1.4917 0.113967
thorax -10.8683 0.841568 0.880468
lowerneck -1.39279 -8.02796 -9.38215
upperneck 0.570627 -10.7189 10.0219
head 1.46461 -5.31429 4.22024
lclavicle -2.73065e-14 -1.84249e-14 0
lhumerus -54.207 -34.9072 119.012
lradius 85.0132 -0 0
lwrist 6.75853 0 0
lhand -29.2346 25.8063 0.162539
lfingers 7.12502 -0 0
lthumb -2.57845 55.7253 0.1534
rclavicle -2.73065e-14 -1.84249e-14 0
rhumerus 65.0694 6.34005 -26.4165
rradius 94.0461 -0 0
rwrist -15.0856 0 0
rhand -28.4651 -34.5861 -0.0189944
rfingers 7.12502 -0 0
rthumb -1.83473 -64.5427 -0.0198823
1225
root -0.870021 14.8684 -16.3652 10.5017 14.6384 -0.280061
lfemur -2.9508 -1.8105 -8.84217
ltibia 65.2704 -0 0
lfoot 6.01046 -1.97675 -0.483515
ltoes -29.3416 0 0
rfemur -52.0888 -7.85326 24.8729
rtibia 73.9532 -0 0
rfoot -21.332 -22.8298 0.129653
rtoes -5.34957 0 0
lowerback 12.1568 1.29734 -1.74504
upperback -3.66178 1.47603 0.137566
thorax -10.8694 0.825069 0.81502
lowerneck -1.42485 -7.9268 -9.30167
upperneck 0.510923 -10.5764 9.96767
head 1.42759 -5.24253 4.20175
lclavicle -2.73065e-14 -1.84249e-14 0
lhumerus -53.8536 -35.3317 119.306
lradius 84.5776 -0 0
lwrist 5.44201 0 0
lhand -29.5649 25.5086 0.124152
lfingers 7.12502 -0 0
lthumb -2.89736 55.4343 0.117173
rclavicle -2.73065e-14 -1.84249e-14 0
rhumerus 65.1322 6.66536 -26.3514
rradius 94.1189 -0 0
rwrist -15.6041 0 0
rhand -28.274 -34.6466 -0.0145111
rfingers 7.12502 -0 0
rthumb -1.65028 -64.6083 -0.0151894
1226
root -0.884004 14.8796 -16.2435 10.653 14.3304 -0.407298
lfemur -3.19462 -1.91253 -8.8455
ltibia 65.7731 -0 0
lfoot 6.47217 -2.58475 -0.347705
ltoes -29.3856 0 0
rfemur -52.0161 -7.63404 25.1728
rtibia 74.0464 -0 0
rfoot -21.5068 -23.272 0.0932838
rtoes -5.27347 0 0
lowerback 12.0893 1.2678 -1.59612
upperback -3.70313 1.4624 0.158123
thorax -10.8702 0.810704 0.758039
lowerneck -1.45264 -7.83868 -9.23167
upperneck 0.458855 -10.4525 9.92036
head 1.39534 -5.18007 4.18562
lclavicle -2.73065e-14 -1.84249e-14 0
lhumerus -53.5465 -35.7025 119.562
lradius 84.1984 -0 0
lwrist 4.29582 0 0
lhand -29.8522 25.2497 0.0893353
lfingers 7.12502 -0 0
lthumb -3.17486 55.181 0.0843141
rclavicle -2.73065e-14 -1.84249e-14 0
rhumerus 65.1873 6.94852 -26.2945
rradius 94.1823 -0 0
rwrist -16.0555 0 0
rhand -28.1077 -34.6994 -0.0104433
rfingers 7.12502 -0 0
rthumb -1.48969 -64.6655 -0.0109315
1227
root -0.897987 14.8907 -16.1218 10.7806 14.0716 -0.51484
lfemur -3.39972 -1.99837 -8.84797
ltibia 66.1959 -0 0
lfoot 6.8594 -3.09531 -0.229681
ltoes -29.4226 0 0
rfemur -51.9541 -7.44993 25.4251
rtibia 74.1248 -0 0
rfoot -21.6537 -23.6438 0.0616473
rtoes -5.20946 0 0
lowerback 12.0325 1.24307 -1.47084
upperback -3.73793 1.45095 0.175422
thorax -10.871 0.79862 0.71011
lowerneck -1.47593 -7.76454 -9.17283
upperneck 0.414992 -10.3482 9.8805
head 1.36821 -5.12754 4.17203
lclavicle -2.73065e-14 -1.84249e-14 0
lhumerus -53.2887 -36.0153 119.775
lradius 83.8794 -0 0
lwrist 3.33168 0 0
lhand -30.0939 25.032 0.0590432
lfingers 7.12502 -0 0
lthumb -3.40816 54.9681 0.0557251
rclavicle -2.73065e-14 -1.84249e-14 0
rhumerus 65.2338 7.18666 -26.2463
rradius 94.2355 -0 0
rwrist -16.4352 0 0
rhand -27.9678 -34.7437 -0.00690312
rfingers 7.12502 -0 0
rthumb -1.35462 -64.7136 -0.00722587
